<?xml version="1.0" encoding="UTF-8"?>
<svg width="41px" height="38px" viewBox="0 0 41 38" version="1.1" xmlns="http://www.w3.org/2000/svg" xmlns:xlink="http://www.w3.org/1999/xlink">
    <!-- Generator: Sketch 62 (91390) - https://sketch.com -->
    <title>icons8-skip</title>
    <desc>Created with Sketch.</desc>
    <g id="page" stroke="none" stroke-width="1" fill="none" fill-rule="evenodd">
        <g id="large" transform="translate(-140.000000, -3161.000000)" fill="#2E3445" fill-rule="nonzero">
            <g id="icons8-skip" transform="translate(140.000000, 3161.000000)">
                <polygon id="Path" points="23 18 41 18 41 0"></polygon>
                <path d="M20,7 C24.566,7 28.664,8.93 31.576,12 L35.1,8.442 C31.288,4.474 25.94,2 20,2 C10.724,2 2.876,8.024 0.098,16.366 L4.832,17.944 C6.95,11.588 12.932,7 20,7 Z" id="Path"></path>
                <path d="M25,30 L25,34 C25,35.104 24.104,36 23,36 L19,36 C17.896,36 17,35.104 17,34 L17,30 C17,28.896 17.896,28 19,28 L23,28 C24.104,28 25,28.896 25,30 Z" id="Path" opacity="0.3"></path>
                <path d="M23,38 L19,38 C16.794,38 15,36.206 15,34 L15,30 C15,27.794 16.794,26 19,26 L23,26 C25.206,26 27,27.794 27,30 L27,34 C27,36.206 25.206,38 23,38 Z M19,30 L19,34 L23,34 L23,30 L19,30 Z M13,30 L13,34 C13,36.21 11.21,38 9,38 L5,38 C2.79,38 1,36.21 1,34 L1,30 C1,27.79 2.79,26 5,26 L9,26 C11.21,26 13,27.79 13,30 Z M41,30 L41,34 C41,36.21 39.21,38 37,38 L33,38 C30.79,38 29,36.21 29,34 L29,30 C29,27.79 30.79,26 33,26 L37,26 C39.21,26 41,27.79 41,30 Z" id="Shape"></path>
            </g>
        </g>
    </g>
</svg>