<?xml version="1.0" encoding="UTF-8"?>
<svg width="44px" height="44px" viewBox="0 0 44 44" version="1.1" xmlns="http://www.w3.org/2000/svg" xmlns:xlink="http://www.w3.org/1999/xlink">
    <!-- Generator: Sketch 62 (91390) - https://sketch.com -->
    <title>icons8-cheap_2</title>
    <desc>Created with Sketch.</desc>
    <g id="page" stroke="none" stroke-width="1" fill="none" fill-rule="evenodd">
        <g id="large" transform="translate(-138.000000, -2737.000000)" fill="#2E3445" fill-rule="nonzero">
            <g id="icons8-cheap_2" transform="translate(138.000000, 2737.000000)">
                <path d="M26.854,21.038 C27.902,19.164 29.876,18 32,18 C34.124,18 36.098,19.164 37.146,21.038 L37.84,22.278 C37.934,21.53 38,20.774 38,20 C38,10.058 29.942,2 20,2 C10.058,2 2,10.058 2,20 C2,29.08 8.728,36.568 17.468,37.802 L26.854,21.038 Z" id="Path" opacity="0.3"></path>
                <path d="M30.344,22.992 L20.264,40.996 C19.518,42.328 20.44,44 21.92,44 L42.08,44 C43.56,44 44.482,42.328 43.736,40.996 L33.656,22.992 C32.916,21.67 31.084,21.67 30.344,22.992 Z M34.01,42.002 L29.99,42.002 L30,38 L34,38 L34.01,42.002 Z M30,36.012 L30,28 L34,28 L34,36.01 L30,36.012 L30,36.012 Z" id="Shape"></path>
                <path d="M16.778,39.042 L18.522,35.926 C10.382,35.176 4.004,28.336 4.004,20 C4.004,11.164 11.168,4 20.004,4 C28.706,4 35.77,10.952 35.984,19.602 C36.434,20.02 36.842,20.486 37.15,21.038 L39.354,24.976 C39.762,23.382 40.004,21.722 40.004,20 C40.004,8.954 31.05,0 20.004,0 C8.958,0 0.004,8.954 0.004,20 C0.004,29.856 7.14,38.028 16.524,39.678 C16.612,39.466 16.664,39.244 16.778,39.042 Z" id="Path"></path>
                <path d="M18.734,15.554 C18.734,13.3 19.976,13.23 20.244,13.23 C20.708,13.23 21.762,13.642 21.878,16 L25.644,16 C25.448,11.142 22.07,10.33 21.446,10.212 L21.446,7.3 L19.43,7.3 L19.43,10.156 C18.752,10.242 14.956,10.956 14.956,15.536 C14.956,22.218 21.874,20.24 21.874,24.698 C21.874,26.93 20.432,26.984 20.138,26.984 C19.878,26.984 18.234,27.086 18.128,24 L14.342,24 C14.486,29.498 18.538,29.956 19.15,30.04 L19.15,32.7 L20.328,32.7 L21.154,31.224 L21.154,30.04 C21.29,30.024 21.572,29.97 21.906,29.882 L25.538,23.394 C24.67,18.422 18.736,19.198 18.734,15.554 Z" id="Path"></path>
            </g>
        </g>
    </g>
</svg>